<svg width="41" height="41" viewBox="0 0 41 41" fill="none" xmlns="http://www.w3.org/2000/svg">
<g clip-path="url(#clip0)">
<path fill-rule="evenodd" clip-rule="evenodd" d="M20.4999 1.08686e-05C15.6283 -0.0050667 10.9142 1.76911 7.20235 5.00458C3.4905 8.24006 1.02352 12.7254 0.243523 17.6567C-0.536474 22.588 0.421494 27.643 2.94575 31.9158C5.47001 36.1886 9.39556 39.3999 14.0189 40.9742C15.0508 41.1678 15.4158 40.5096 15.4158 39.9547C15.4158 39.3998 15.4158 38.135 15.4158 36.3799C9.68988 37.6575 8.48177 33.5537 8.48177 33.5537C8.10191 32.2818 7.29491 31.189 6.204 30.4693C4.35409 29.1788 6.35501 29.1788 6.35501 29.1788C7.00348 29.2727 7.62261 29.5167 8.1655 29.8924C8.7084 30.268 9.16083 30.7654 9.48853 31.3469C9.76697 31.8646 10.1424 32.3209 10.5932 32.6895C11.044 33.0581 11.5614 33.3318 12.1156 33.4949C12.6698 33.658 13.2499 33.7072 13.8228 33.6398C14.3956 33.5723 14.9498 33.3896 15.4535 33.102C15.5325 32.0403 15.9788 31.0426 16.712 30.2886C12.1564 29.7595 7.37435 27.9528 7.37435 19.9644C7.34307 17.8776 8.09553 15.8584 9.47594 14.3248C8.86114 12.5104 8.933 10.5254 9.67729 8.76268C9.67729 8.76268 11.4014 8.19485 15.3151 10.9179C18.6759 9.97159 22.2232 9.97159 25.584 10.9179C29.4977 8.19485 31.2092 8.76268 31.2092 8.76268C31.9639 10.5067 32.0537 12.4775 31.4609 14.2861C32.8413 15.8197 33.5938 17.8389 33.5625 19.9257C33.5625 28.0044 28.7678 29.7724 24.1997 30.2499C24.6895 30.7549 25.0678 31.3619 25.3088 32.0299C25.5498 32.6979 25.6479 33.4112 25.5966 34.1215C25.5966 36.9349 25.5966 39.2062 25.5966 39.8902C25.5966 40.5741 25.9615 41.1032 27.006 40.8968C31.5767 39.2809 35.4435 36.0605 37.9232 31.8043C40.4029 27.5482 41.3359 22.5302 40.5574 17.637C39.779 12.7437 37.3391 8.29005 33.6689 5.06278C29.9987 1.83551 25.3344 0.0423261 20.4999 1.08686e-05V1.08686e-05Z" fill="#191717"/>
</g>
<defs>
<clipPath id="clip0">
<rect width="41" height="41" fill="white"/>
</clipPath>
</defs>
</svg>
