<svg width="41" height="41" viewBox="0 0 41 41" fill="none" xmlns="http://www.w3.org/2000/svg">
<g clip-path="url(#clip0)">
<path d="M20.735 23.5148C20.6052 23.632 20.4416 23.6903 20.278 23.6903C20.1144 23.6903 19.9508 23.632 19.8209 23.5148L17.4719 21.4018L10.5906 27.2082H29.965L23.0841 21.4014L20.735 23.5148Z" fill="black"/>
<path d="M29.9932 13.3472H10.5627L20.278 22.0872L29.9932 13.3472Z" fill="black"/>
<path d="M9.37354 14.1172V26.4435L16.4458 20.4786L9.37354 14.1172Z" fill="black"/>
<path d="M31.1826 26.4435V14.1172L24.1104 20.4786L31.1826 26.4435Z" fill="black"/>
<path d="M20.4941 -0.0117149C9.16898 -0.0117149 -0.0117149 9.16898 -0.0117149 20.4941C-0.0117149 31.8193 9.16898 41 20.4941 41C31.8193 41 41 31.8193 41 20.4941C41 9.16898 31.8193 -0.0117149 20.4941 -0.0117149ZM32.7644 26.8332C32.7644 27.9127 31.8858 28.7913 30.8063 28.7913H10.182C9.10246 28.7913 8.22435 27.9127 8.22435 26.8332V14.1546C8.22435 13.0751 9.10246 12.197 10.182 12.197H30.8063C31.8858 12.197 32.7644 13.0751 32.7644 14.1546V26.8332Z" fill="black"/>
</g>
<defs>
<clipPath id="clip0">
<rect width="41" height="41" fill="white"/>
</clipPath>
</defs>
</svg>
