<svg width="99" height="89" viewBox="0 0 99 89" fill="none" xmlns="http://www.w3.org/2000/svg">
<g filter="url(#filter0_d)">
<mask id="mask0" mask-type="alpha" maskUnits="userSpaceOnUse" x="20" y="10" width="59" height="55">
<path d="M33.9115 19C40.8397 7.00001 58.1603 7 65.0885 19L75.9138 37.75C82.842 49.75 74.1817 64.75 60.3253 64.75H38.6747C24.8183 64.75 16.158 49.75 23.0862 37.75L33.9115 19Z" fill="black"/>
</mask>
<g mask="url(#mask0)">
<path d="M29.7979 29.125C38.5544 13.9583 60.4456 13.9583 69.2021 29.125C77.9586 44.2917 67.013 63.25 49.5 63.25C31.987 63.25 21.0414 44.2917 29.7979 29.125Z" fill="white" stroke="black" stroke-width="3"/>
<path fill-rule="evenodd" clip-rule="evenodd" d="M54.4948 0.542762C53.1289 -1.82296 50.1039 -2.63351 47.7382 -1.26766C45.3724 0.0981843 44.5619 3.12321 45.9277 5.48893L64.5085 37.6717C66.433 41.005 64.0273 45.1717 60.1783 45.1717H44.3206C42.5522 45.1717 40.9184 46.1158 40.0353 47.6479C38.1347 50.9453 40.5146 55.0641 44.3206 55.0641H83.7111C86.4428 55.0641 88.6573 52.8496 88.6573 50.1179C88.6573 47.3862 86.4428 45.1717 83.7111 45.1717H83.148C81.3617 45.1717 79.7111 44.2187 78.8179 42.6717L54.4948 0.542762Z" fill="#2553F6"/>
<path d="M64.5085 37.6717L63.2094 38.4217L64.5085 37.6717ZM65.8075 36.9217L47.2268 4.73893L44.6287 6.23893L63.2094 38.4217L65.8075 36.9217ZM60.1783 43.6717H44.3206V46.6717H60.1783V43.6717ZM44.3206 56.5641H83.7111V53.5641H44.3206V56.5641ZM83.7111 43.6717H83.148V46.6717H83.7111V43.6717ZM53.1957 1.29276L77.5189 43.4217L80.117 41.9217L55.7938 -0.207238L53.1957 1.29276ZM83.148 43.6717C81.8976 43.6717 80.7422 43.0046 80.117 41.9217L77.5189 43.4217C78.68 45.4328 80.8258 46.6717 83.148 46.6717V43.6717ZM90.1573 50.1179C90.1573 46.5578 87.2713 43.6717 83.7111 43.6717V46.6717C85.6144 46.6717 87.1573 48.2146 87.1573 50.1179H90.1573ZM83.7111 56.5641C87.2713 56.5641 90.1573 53.678 90.1573 50.1179H87.1573C87.1573 52.0212 85.6144 53.5641 83.7111 53.5641V56.5641ZM38.7357 46.8988C36.2587 51.1963 39.3604 56.5641 44.3206 56.5641V53.5641C41.6688 53.5641 40.0107 50.6944 41.3349 48.3969L38.7357 46.8988ZM44.3206 43.6717C42.016 43.6717 39.8866 44.9021 38.7357 46.8988L41.3349 48.3969C41.9502 47.3295 43.0885 46.6717 44.3206 46.6717V43.6717ZM63.2094 38.4217C64.5566 40.755 62.8726 43.6717 60.1783 43.6717V46.6717C65.182 46.6717 68.3094 41.255 65.8075 36.9217L63.2094 38.4217ZM48.4882 0.0313734C50.1364 -0.920262 52.2441 -0.355519 53.1957 1.29276L55.7938 -0.207238C54.0137 -3.2904 50.0713 -4.34677 46.9882 -2.5667L48.4882 0.0313734ZM46.9882 -2.5667C43.905 -0.786641 42.8486 3.15577 44.6287 6.23893L47.2268 4.73893C46.2751 3.09065 46.8399 0.98301 48.4882 0.0313734L46.9882 -2.5667Z" fill="black"/>
<path fill-rule="evenodd" clip-rule="evenodd" d="M28.5517 67.7373C27.1858 70.103 24.1608 70.9136 21.7951 69.5477L18.3626 67.566C17.8926 67.2946 17.7315 66.6936 18.0029 66.2236L18.854 64.7495C18.854 64.7495 18.854 64.7495 18.854 64.7495C18.8539 64.7495 18.8539 64.7494 18.8539 64.7494L24.5652 54.8571C24.5653 54.8571 24.5653 54.8571 24.5653 54.8571C24.5653 54.8571 24.5654 54.8571 24.5654 54.8571L39.6799 28.6779C41.5829 25.3818 46.3398 25.3801 48.2451 28.6748C49.1304 30.2056 49.1311 32.0926 48.2469 33.6241L40.3182 47.3571C38.3937 50.6904 40.7993 54.8571 44.6483 54.8571L81.8093 54.8571C84.541 54.8571 86.7555 57.0716 86.7555 59.8033C86.7555 62.535 84.541 64.7494 81.8093 64.7494L33.1635 64.7495C31.3771 64.7495 29.7265 65.7024 28.8333 67.2495L28.5517 67.7373Z" fill="#F535C0"/>
<path d="M33.1635 64.7495V66.2495V64.7495ZM48.2469 33.6241L46.9479 32.8741L48.2469 33.6241ZM24.5654 54.8571L25.8644 55.6071L24.5654 54.8571ZM24.5652 54.8571L23.2662 54.1071L24.5652 54.8571ZM18.8539 64.7494L20.153 65.4994L18.8539 64.7494ZM18.854 64.7495L17.5549 63.9995L18.854 64.7495ZM21.7951 69.5477L21.0451 70.8468L21.7951 69.5477ZM28.5517 67.7373L27.2526 66.9873L28.5517 67.7373ZM18.3626 67.566L17.6126 68.865H17.6126L18.3626 67.566ZM18.0029 66.2236L16.7039 65.4736L18.0029 66.2236ZM17.6126 68.865L21.0451 70.8468L22.5451 68.2487L19.1126 66.267L17.6126 68.865ZM17.5549 63.9995L16.7039 65.4736L19.302 66.9736L20.153 65.4995L17.5549 63.9995ZM20.153 65.4994L25.8643 55.6071L23.2662 54.1071L17.5549 63.9994L20.153 65.4994ZM38.3809 27.9279L23.2663 54.1071L25.8644 55.6071L40.9789 29.4279L38.3809 27.9279ZM41.6172 48.1071L49.546 34.3741L46.9479 32.8741L39.0191 46.6071L41.6172 48.1071ZM44.6483 56.3571L81.8093 56.3571V53.3571L44.6483 53.3571V56.3571ZM81.8093 63.2494L33.1635 63.2495V66.2495L81.8093 66.2494V63.2494ZM29.8507 68.4873L30.1324 67.9995L27.5343 66.4995L27.2526 66.9873L29.8507 68.4873ZM33.1635 63.2495C30.8412 63.2495 28.6954 64.4883 27.5343 66.4995L30.1324 67.9995C30.7576 66.9165 31.913 66.2495 33.1635 66.2495V63.2495ZM85.2555 59.8033C85.2555 61.7065 83.7126 63.2494 81.8093 63.2494V66.2494C85.3695 66.2494 88.2555 63.3634 88.2555 59.8033H85.2555ZM81.8093 56.3571C83.7126 56.3571 85.2555 57.9 85.2555 59.8033H88.2555C88.2555 56.2431 85.3695 53.3571 81.8093 53.3571V56.3571ZM39.0191 46.6071C36.5173 50.9404 39.6446 56.3571 44.6483 56.3571V53.3571C41.954 53.3571 40.2701 50.4404 41.6172 48.1071L39.0191 46.6071ZM46.9466 29.4258C47.5635 30.4923 47.5639 31.8071 46.9479 32.8741L49.546 34.3741C50.6983 32.3782 50.6974 29.919 49.5436 27.9239L46.9466 29.4258ZM40.9789 29.4279C42.3048 27.1314 45.6191 27.1302 46.9466 29.4258L49.5436 27.9239C47.0604 23.63 40.861 23.6323 38.3809 27.9279L40.9789 29.4279ZM24.5653 56.3571C25.0877 56.3571 25.5897 56.0828 25.8644 55.6071L23.2663 54.1071C23.541 53.6314 24.043 53.3571 24.5653 53.3571V56.3571ZM25.8643 55.6071C25.5965 56.071 25.1015 56.3571 24.5653 56.3571V53.3571C24.0291 53.3571 23.534 53.6433 23.2662 54.1071L25.8643 55.6071ZM18.854 63.2495C20.0086 63.2495 20.7303 64.4994 20.153 65.4994L17.5549 63.9994C16.9775 64.9994 17.6992 66.2495 18.854 66.2495V63.2495ZM20.153 65.4995C20.7304 64.4995 20.0087 63.2495 18.854 63.2495V66.2495C17.6993 66.2495 16.9776 64.9995 17.5549 63.9995L20.153 65.4995ZM21.0451 70.8468C24.1282 72.6268 28.0706 71.5705 29.8507 68.4873L27.2526 66.9873C26.301 68.6356 24.1933 69.2003 22.5451 68.2487L21.0451 70.8468ZM19.1126 66.267C19.36 66.4098 19.4448 66.7262 19.302 66.9736L16.7039 65.4736C16.0183 66.661 16.4251 68.1794 17.6126 68.865L19.1126 66.267Z" fill="black"/>
<path fill-rule="evenodd" clip-rule="evenodd" d="M36.2146 8.51126C34.8487 6.14554 35.6593 3.12051 38.025 1.75466L41.4534 -0.224727C41.9257 -0.497389 42.5295 -0.335579 42.8022 0.136687L43.6509 1.60664C43.6509 1.60667 43.6509 1.60667 43.6509 1.60664C43.651 1.60662 43.651 1.60662 43.651 1.60664L49.3623 11.4989C49.3623 11.4989 49.3623 11.499 49.3623 11.499C49.3623 11.499 49.3623 11.4991 49.3623 11.4991L64.4769 37.6783C66.3798 40.9744 64.0029 45.0948 60.1969 45.0975C58.4285 45.0988 56.794 44.1559 55.9098 42.6245L47.981 28.8914C46.0565 25.5581 41.2453 25.5581 39.3208 28.8914L20.7403 61.0738C19.3744 63.4395 16.3494 64.25 13.9837 62.8842C11.618 61.5183 10.8074 58.4933 12.1733 56.1276L36.4962 13.999C37.3893 12.452 37.3893 10.546 36.4962 8.99904L36.2146 8.51126Z" fill="#40F49E"/>
<path d="M36.4962 13.999L35.1971 13.249L36.4962 13.999ZM20.7403 61.0738L19.4412 60.3238L20.7403 61.0738ZM39.3208 28.8914L38.0217 28.1414L39.3208 28.8914ZM64.4769 37.6783L63.1778 38.4283L64.4769 37.6783ZM49.3623 11.4991L50.6613 10.7491L49.3623 11.4991ZM49.3623 11.4989L50.6613 10.7489L49.3623 11.4989ZM43.651 1.60664L44.95 0.856645L43.651 1.60664ZM43.6509 1.60664L42.3518 2.35664L43.6509 1.60664ZM36.2146 8.51126L34.9155 9.26126L36.2146 8.51126ZM42.8022 0.136687L41.5032 0.886687L42.8022 0.136687ZM40.7034 -1.52376L37.275 0.455624L38.775 3.0537L42.2034 1.07431L40.7034 -1.52376ZM44.9499 0.856644L44.1012 -0.613313L41.5032 0.886687L42.3518 2.35664L44.9499 0.856644ZM42.352 2.35664L48.0633 12.2489L50.6613 10.7489L44.95 0.856645L42.352 2.35664ZM65.7759 36.9283L50.6613 10.7491L48.0633 12.2491L63.1778 38.4283L65.7759 36.9283ZM46.682 29.6414L54.6108 43.3745L57.2089 41.8745L49.2801 28.1414L46.682 29.6414ZM38.0217 28.1414L19.4412 60.3238L22.0393 61.8238L40.6198 29.6414L38.0217 28.1414ZM13.4723 56.8776L37.7952 14.749L35.1971 13.249L10.8742 55.3776L13.4723 56.8776ZM34.9155 9.26126L35.1971 9.74904L37.7952 8.24904L37.5136 7.76126L34.9155 9.26126ZM37.7952 14.749C38.9563 12.7379 38.9563 10.2601 37.7952 8.24904L35.1971 9.74904C35.8224 10.8319 35.8224 12.1661 35.1971 13.249L37.7952 14.749ZM14.7337 61.5852C13.0854 60.6335 12.5207 58.5259 13.4723 56.8776L10.8742 55.3776C9.09415 58.4608 10.1505 62.4032 13.2337 64.1832L14.7337 61.5852ZM19.4412 60.3238C18.4896 61.9721 16.382 62.5368 14.7337 61.5852L13.2337 64.1832C16.3168 65.9633 20.2593 64.9069 22.0393 61.8238L19.4412 60.3238ZM49.2801 28.1414C46.7782 23.8081 40.5236 23.8081 38.0217 28.1414L40.6198 29.6414C41.967 27.3081 45.3349 27.3081 46.682 29.6414L49.2801 28.1414ZM60.1958 43.5975C58.9637 43.5984 57.8249 42.9415 57.2089 41.8745L54.6108 43.3745C55.7631 45.3703 57.8933 46.5992 60.198 46.5975L60.1958 43.5975ZM63.1778 38.4283C64.5037 40.7248 62.8476 43.5956 60.1958 43.5975L60.198 46.5975C65.1582 46.594 68.256 41.2239 65.7759 36.9283L63.1778 38.4283ZM48.0727 10.7329C47.7801 11.2254 47.8074 11.8059 48.0633 12.2491L50.6613 10.7491C50.9172 11.1922 50.9444 11.7727 50.6519 12.2651L48.0727 10.7329ZM48.0633 12.2489C47.7963 11.7865 47.7912 11.2067 48.0727 10.7329L50.6519 12.2651C50.9334 11.7912 50.9283 11.2114 50.6613 10.7489L48.0633 12.2489ZM44.9451 2.3651C44.3634 3.35754 42.9271 3.35286 42.352 2.35664L44.95 0.856645C44.3748 -0.139615 42.9385 -0.144299 42.3568 0.848186L44.9451 2.3651ZM42.3518 2.35664C42.927 3.3529 44.3634 3.35759 44.9451 2.3651L42.3568 0.848186C42.9385 -0.144256 44.3748 -0.139572 44.9499 0.856644L42.3518 2.35664ZM37.275 0.455624C34.1918 2.23569 33.1355 6.17811 34.9155 9.26126L37.5136 7.76126C36.562 6.11298 37.1267 4.00533 38.775 3.0537L37.275 0.455624ZM42.2034 1.07431C41.9582 1.21586 41.6447 1.13186 41.5032 0.886687L44.1012 -0.613313C43.4144 -1.80302 41.8931 -2.21064 40.7034 -1.52376L42.2034 1.07431Z" fill="black"/>
<path d="M35.2106 19.75C41.5614 8.75001 57.4386 8.75 63.7894 19.75L74.6147 38.5C80.9656 49.5 73.027 63.25 60.3253 63.25H38.6747C25.973 63.25 18.0344 49.5 24.3853 38.5L35.2106 19.75Z" stroke="black" stroke-width="3"/>
</g>
</g>
<defs>
<filter id="filter0_d" x="0.647827" y="-10" width="97.7043" height="94.75" filterUnits="userSpaceOnUse" color-interpolation-filters="sRGB">
<feFlood flood-opacity="0" result="BackgroundImageFix"/>
<feColorMatrix in="SourceAlpha" type="matrix" values="0 0 0 0 0 0 0 0 0 0 0 0 0 0 0 0 0 0 127 0"/>
<feOffset/>
<feGaussianBlur stdDeviation="10"/>
<feColorMatrix type="matrix" values="0 0 0 0 0 0 0 0 0 0 0 0 0 0 0 0 0 0 0.25 0"/>
<feBlend mode="normal" in2="BackgroundImageFix" result="effect1_dropShadow"/>
<feBlend mode="normal" in="SourceGraphic" in2="effect1_dropShadow" result="shape"/>
</filter>
</defs>
</svg>
