<svg width="99" height="99" viewBox="0 0 99 99" fill="none" xmlns="http://www.w3.org/2000/svg">
<g filter="url(#filter0_d)">
<mask id="mask0" mask-type="alpha" maskUnits="userSpaceOnUse" x="20" y="20" width="59" height="55">
<path d="M33.9115 29C40.8397 17 58.1603 17 65.0885 29L75.9138 47.75C82.842 59.75 74.1817 74.75 60.3253 74.75H38.6747C24.8183 74.75 16.158 59.75 23.0862 47.75L33.9115 29Z" fill="black"/>
</mask>
<g mask="url(#mask0)">
<path d="M49.5 73.25C31.987 73.25 21.0414 54.2917 29.7979 39.125C38.5544 23.9583 60.4456 23.9583 69.2021 39.125C77.9586 54.2917 67.013 73.25 49.5 73.25Z" fill="white" stroke="black" stroke-width="3"/>
<path fill-rule="evenodd" clip-rule="evenodd" d="M54.4948 10.5428C53.1289 8.17704 50.1039 7.36649 47.7382 8.73234V8.73234C45.3724 10.0982 44.5619 13.1232 45.9277 15.4889L64.5085 47.6717C66.433 51.005 64.0273 55.1717 60.1783 55.1717H44.3206C42.5522 55.1717 40.9184 56.1158 40.0353 57.6479V57.6479C38.1347 60.9453 40.5146 65.0641 44.3206 65.0641H83.7111C86.4428 65.0641 88.6573 62.8496 88.6573 60.1179V60.1179C88.6573 57.3862 86.4428 55.1717 83.7111 55.1717H83.148C81.3617 55.1717 79.7111 54.2187 78.8179 52.6717L54.4948 10.5428Z" fill="#2553F6"/>
<path d="M64.5085 47.6717L63.2094 48.4217L64.5085 47.6717ZM65.8075 46.9217L47.2268 14.7389L44.6287 16.2389L63.2094 48.4217L65.8075 46.9217ZM60.1783 53.6717H44.3206V56.6717H60.1783V53.6717ZM44.3206 66.5641H83.7111V63.5641H44.3206V66.5641ZM83.7111 53.6717H83.148V56.6717H83.7111V53.6717ZM53.1957 11.2928L77.5189 53.4217L80.117 51.9217L55.7938 9.79276L53.1957 11.2928ZM83.148 53.6717C81.8976 53.6717 80.7422 53.0046 80.117 51.9217L77.5189 53.4217C78.68 55.4328 80.8258 56.6717 83.148 56.6717V53.6717ZM90.1573 60.1179C90.1573 56.5578 87.2713 53.6717 83.7111 53.6717V56.6717C85.6144 56.6717 87.1573 58.2146 87.1573 60.1179H90.1573ZM83.7111 66.5641C87.2713 66.5641 90.1573 63.678 90.1573 60.1179H87.1573C87.1573 62.0212 85.6144 63.5641 83.7111 63.5641V66.5641ZM38.7357 56.8988C36.2587 61.1963 39.3604 66.5641 44.3206 66.5641V63.5641C41.6688 63.5641 40.0107 60.6944 41.3349 58.3969L38.7357 56.8988ZM44.3206 53.6717C42.016 53.6717 39.8866 54.9021 38.7357 56.8988L41.3349 58.3969C41.9502 57.3295 43.0885 56.6717 44.3206 56.6717V53.6717ZM63.2094 48.4217C64.5566 50.755 62.8726 53.6717 60.1783 53.6717V56.6717C65.182 56.6717 68.3094 51.255 65.8075 46.9217L63.2094 48.4217ZM48.4882 10.0314C50.1364 9.07974 52.2441 9.64448 53.1957 11.2928L55.7938 9.79276C54.0137 6.7096 50.0713 5.65323 46.9882 7.4333L48.4882 10.0314ZM46.9882 7.4333C43.905 9.21336 42.8486 13.1558 44.6287 16.2389L47.2268 14.7389C46.2751 13.0907 46.8399 10.983 48.4882 10.0314L46.9882 7.4333Z" fill="black"/>
<path fill-rule="evenodd" clip-rule="evenodd" d="M28.5517 77.7373C27.1858 80.103 24.1608 80.9136 21.7951 79.5477L18.3626 77.566C17.8926 77.2946 17.7315 76.6936 18.0029 76.2236L18.854 74.7495C18.854 74.7495 18.854 74.7495 18.854 74.7495V74.7495C18.8539 74.7495 18.8539 74.7494 18.8539 74.7494L24.5652 64.8571C24.5653 64.8571 24.5653 64.8571 24.5653 64.8571V64.8571C24.5653 64.8571 24.5654 64.8571 24.5654 64.8571L39.6799 38.6779C41.5829 35.3818 46.3398 35.3801 48.2451 38.6748V38.6748C49.1304 40.2056 49.1311 42.0926 48.2469 43.6241L40.3182 57.3571C38.3937 60.6904 40.7993 64.8571 44.6483 64.8571L81.8093 64.8571C84.541 64.8571 86.7555 67.0716 86.7555 69.8033V69.8033C86.7555 72.535 84.541 74.7494 81.8093 74.7494L33.1635 74.7495C31.3771 74.7495 29.7265 75.7024 28.8333 77.2495L28.5517 77.7373Z" fill="#C429FB"/>
<path d="M33.1635 74.7495L33.1635 76.2495L33.1635 74.7495ZM48.2469 43.6241L46.9479 42.8741L48.2469 43.6241ZM24.5654 64.8571L25.8644 65.6071L24.5654 64.8571ZM24.5652 64.8571L23.2662 64.1071L24.5652 64.8571ZM18.8539 74.7494L20.153 75.4994L18.8539 74.7494ZM18.854 74.7495L17.5549 73.9995L18.854 74.7495ZM21.7951 79.5477L21.0451 80.8468L21.7951 79.5477ZM28.5517 77.7373L27.2526 76.9873L28.5517 77.7373ZM18.3626 77.566L17.6126 78.865L17.6126 78.865L18.3626 77.566ZM18.0029 76.2236L16.7039 75.4736L18.0029 76.2236ZM17.6126 78.865L21.0451 80.8468L22.5451 78.2487L19.1126 76.267L17.6126 78.865ZM17.5549 73.9995L16.7039 75.4736L19.302 76.9736L20.153 75.4995L17.5549 73.9995ZM20.153 75.4994L25.8643 65.6071L23.2662 64.1071L17.5549 73.9994L20.153 75.4994ZM38.3809 37.9279L23.2663 64.1071L25.8644 65.6071L40.9789 39.4279L38.3809 37.9279ZM41.6172 58.1071L49.546 44.3741L46.9479 42.8741L39.0191 56.6071L41.6172 58.1071ZM44.6483 66.3571L81.8093 66.3571L81.8093 63.3571L44.6483 63.3571L44.6483 66.3571ZM81.8093 73.2494L33.1635 73.2495L33.1635 76.2495L81.8093 76.2494L81.8093 73.2494ZM29.8507 78.4873L30.1324 77.9995L27.5343 76.4995L27.2526 76.9873L29.8507 78.4873ZM33.1635 73.2495C30.8412 73.2495 28.6954 74.4883 27.5343 76.4995L30.1324 77.9995C30.7576 76.9165 31.913 76.2495 33.1635 76.2495L33.1635 73.2495ZM85.2555 69.8033C85.2555 71.7065 83.7126 73.2494 81.8093 73.2494L81.8093 76.2494C85.3695 76.2494 88.2555 73.3634 88.2555 69.8033H85.2555ZM81.8093 66.3571C83.7126 66.3571 85.2555 67.9 85.2555 69.8033H88.2555C88.2555 66.2431 85.3695 63.3571 81.8093 63.3571L81.8093 66.3571ZM39.0191 56.6071C36.5173 60.9404 39.6446 66.3571 44.6483 66.3571L44.6483 63.3571C41.954 63.3571 40.2701 60.4404 41.6172 58.1071L39.0191 56.6071ZM46.9466 39.4258C47.5635 40.4923 47.5639 41.8071 46.9479 42.8741L49.546 44.3741C50.6983 42.3782 50.6974 39.919 49.5436 37.9239L46.9466 39.4258ZM40.9789 39.4279C42.3048 37.1314 45.6191 37.1302 46.9466 39.4258L49.5436 37.9239C47.0604 33.63 40.861 33.6323 38.3809 37.9279L40.9789 39.4279ZM24.5653 66.3571C25.0877 66.3571 25.5897 66.0828 25.8644 65.6071L23.2663 64.1071C23.541 63.6314 24.043 63.3571 24.5653 63.3571V66.3571ZM25.8643 65.6071C25.5965 66.071 25.1015 66.3571 24.5653 66.3571V63.3571C24.0291 63.3571 23.534 63.6433 23.2662 64.1071L25.8643 65.6071ZM18.854 73.2495C20.0086 73.2495 20.7303 74.4994 20.153 75.4994L17.5549 73.9994C16.9775 74.9994 17.6992 76.2495 18.854 76.2495V73.2495ZM20.153 75.4995C20.7304 74.4995 20.0087 73.2495 18.854 73.2495V76.2495C17.6993 76.2495 16.9776 74.9995 17.5549 73.9995L20.153 75.4995ZM21.0451 80.8468C24.1282 82.6268 28.0706 81.5705 29.8507 78.4873L27.2526 76.9873C26.301 78.6356 24.1933 79.2003 22.5451 78.2487L21.0451 80.8468ZM19.1126 76.267C19.36 76.4098 19.4448 76.7262 19.302 76.9736L16.7039 75.4736C16.0183 76.661 16.4251 78.1794 17.6126 78.865L19.1126 76.267Z" fill="black"/>
<path fill-rule="evenodd" clip-rule="evenodd" d="M36.2146 18.5113C34.8487 16.1456 35.6593 13.1205 38.025 11.7547L41.4541 9.77493C41.926 9.50248 42.5294 9.66416 42.8018 10.1361L43.6509 11.6067C43.6509 11.6067 43.6509 11.6067 43.6509 11.6067V11.6067C43.651 11.6067 43.651 11.6067 43.651 11.6067L49.3623 21.4989C49.3623 21.499 49.3623 21.499 49.3623 21.499V21.499C49.3623 21.4991 49.3623 21.4991 49.3623 21.4991L64.4769 47.6783C66.3798 50.9744 64.0029 55.0948 60.1969 55.0976V55.0976C58.4285 55.0989 56.794 54.1559 55.9098 52.6245L47.981 38.8914C46.0565 35.5581 41.2453 35.5581 39.3208 38.8914L20.7403 71.0738C19.3744 73.4395 16.3494 74.2501 13.9837 72.8842V72.8842C11.618 71.5184 10.8074 68.4934 12.1733 66.1276L36.4962 23.9991C37.3893 22.4521 37.3893 20.5461 36.4962 18.9991L36.2146 18.5113Z" fill="#40F49E"/>
<path d="M36.4962 23.9991L35.1971 23.2491L36.4962 23.9991ZM12.1733 66.1276L10.8742 65.3776L12.1733 66.1276ZM20.7403 71.0738L19.4412 70.3238L20.7403 71.0738ZM64.4769 47.6783L63.1778 48.4283L64.4769 47.6783ZM49.3623 21.4991L50.6613 20.7491L49.3623 21.4991ZM49.3623 21.4989L50.6613 20.7489L49.3623 21.4989ZM43.651 11.6067L42.352 12.3567L43.651 11.6067ZM43.6509 11.6067L42.3518 12.3567L43.6509 11.6067ZM36.2146 18.5113L34.9155 19.2613L36.2146 18.5113ZM41.4541 9.77493L40.7041 8.47589L41.4541 9.77493ZM42.8018 10.1361L41.5028 10.8861L42.8018 10.1361ZM40.7041 8.47589L37.275 10.4557L38.775 13.0537L42.2041 11.074L40.7041 8.47589ZM44.9499 10.8567L44.1009 9.38606L41.5028 10.8861L42.3518 12.3567L44.9499 10.8567ZM42.352 12.3567L48.0633 22.2489L50.6613 20.7489L44.95 10.8567L42.352 12.3567ZM65.7759 46.9283L50.6613 20.7491L48.0633 22.2491L63.1778 48.4283L65.7759 46.9283ZM46.682 39.6414L54.6108 53.3745L57.2089 51.8745L49.2801 38.1414L46.682 39.6414ZM38.0217 38.1414L19.4412 70.3238L22.0393 71.8238L40.6198 39.6414L38.0217 38.1414ZM13.4723 66.8776L37.7952 24.7491L35.1971 23.2491L10.8742 65.3776L13.4723 66.8776ZM34.9155 19.2613L35.1971 19.7491L37.7952 18.2491L37.5136 17.7613L34.9155 19.2613ZM37.7952 24.7491C38.9563 22.738 38.9563 20.2602 37.7952 18.2491L35.1971 19.7491C35.8224 20.832 35.8224 22.1662 35.1971 23.2491L37.7952 24.7491ZM14.7337 71.5852C13.0854 70.6336 12.5207 68.5259 13.4723 66.8776L10.8742 65.3776C9.09415 68.4608 10.1505 72.4032 13.2337 74.1833L14.7337 71.5852ZM19.4412 70.3238C18.4896 71.9721 16.382 72.5368 14.7337 71.5852L13.2337 74.1833C16.3168 75.9633 20.2593 74.907 22.0393 71.8238L19.4412 70.3238ZM49.2801 38.1414C46.7782 33.8081 40.5236 33.8081 38.0217 38.1414L40.6198 39.6414C41.967 37.3081 45.3348 37.3081 46.682 39.6414L49.2801 38.1414ZM60.1958 53.5976C58.9637 53.5985 57.8249 52.9415 57.2089 51.8745L54.6108 53.3745C55.7631 55.3704 57.8933 56.5992 60.198 56.5976L60.1958 53.5976ZM63.1778 48.4283C64.5037 50.7248 62.8476 53.5957 60.1958 53.5976L60.198 56.5976C65.1582 56.594 68.256 51.224 65.7759 46.9283L63.1778 48.4283ZM48.0727 20.7329C47.7801 21.2254 47.8074 21.806 48.0633 22.2491L50.6613 20.7491C50.9172 21.1922 50.9444 21.7727 50.6519 22.2651L48.0727 20.7329ZM48.0633 22.2489C47.7963 21.7865 47.7912 21.2067 48.0727 20.7329L50.6519 22.2651C50.9334 21.7913 50.9283 21.2114 50.6613 20.7489L48.0633 22.2489ZM44.9459 12.3638C44.3649 13.3574 42.9275 13.3535 42.352 12.3567L44.95 10.8567C44.3745 9.85981 42.937 9.85588 42.356 10.8496L44.9459 12.3638ZM42.3518 12.3567C42.9274 13.3536 44.3649 13.3575 44.9459 12.3638L42.356 10.8496C42.937 9.85593 44.3744 9.85985 44.9499 10.8567L42.3518 12.3567ZM37.275 10.4557C34.1918 12.2357 33.1355 16.1781 34.9155 19.2613L37.5136 17.7613C36.562 16.113 37.1267 14.0054 38.775 13.0537L37.275 10.4557ZM42.2041 11.074C41.9585 11.2157 41.6445 11.1316 41.5028 10.8861L44.1009 9.38606C43.4142 8.19672 41.8934 7.78922 40.7041 8.47589L42.2041 11.074Z" fill="black"/>
<path d="M63.7894 29.75L74.6147 48.5C80.9656 59.5 73.027 73.25 60.3253 73.25H38.6747C25.973 73.25 18.0344 59.5 24.3853 48.5L35.2106 29.75C41.5614 18.75 57.4386 18.75 63.7894 29.75Z" stroke="black" stroke-width="3"/>
</g>
</g>
<defs>
<filter id="filter0_d" x="0.647827" y="0" width="97.7043" height="94.75" filterUnits="userSpaceOnUse" color-interpolation-filters="sRGB">
<feFlood flood-opacity="0" result="BackgroundImageFix"/>
<feColorMatrix in="SourceAlpha" type="matrix" values="0 0 0 0 0 0 0 0 0 0 0 0 0 0 0 0 0 0 127 0"/>
<feOffset/>
<feGaussianBlur stdDeviation="10"/>
<feColorMatrix type="matrix" values="0 0 0 0 0 0 0 0 0 0 0 0 0 0 0 0 0 0 0.25 0"/>
<feBlend mode="normal" in2="BackgroundImageFix" result="effect1_dropShadow"/>
<feBlend mode="normal" in="SourceGraphic" in2="effect1_dropShadow" result="shape"/>
</filter>
</defs>
</svg>
